<?xml version="1.0" encoding="UTF-8" standalone="no"?>
<!DOCTYPE svg PUBLIC "-//W3C//DTD SVG 1.1//EN"
 "http://www.w3.org/Graphics/SVG/1.1/DTD/svg11.dtd">
<!-- Generated by graphviz version 2.47.0 (20210316.0004)
 -->
<!-- Title: dependencies Pages: 1 -->
<svg width="874pt" height="211pt"
 viewBox="0.00 0.00 874.00 211.00" xmlns="http://www.w3.org/2000/svg" xmlns:xlink="http://www.w3.org/1999/xlink">
<g id="graph0" class="graph" transform="scale(1 1) rotate(0) translate(4 207)">
<title>dependencies</title>
<polygon fill="white" stroke="transparent" points="-4,4 -4,-207 870,-207 870,4 -4,4"/>
<text text-anchor="start" x="412.01" y="-42.4" font-family="Times-12" font-weight="bold" font-size="14.00">Legend</text>
<polygon fill="#ffffb3" stroke="transparent" points="199,-10 199,-30 219,-30 219,-10 199,-10"/>
<text text-anchor="start" x="222.63" y="-15.4" font-family="Times-12" font-size="14.00"> &#160;Declarations</text>
<polygon fill="#8dd3c7" stroke="transparent" points="312,-10 312,-30 332,-30 332,-10 312,-10"/>
<text text-anchor="start" x="335.73" y="-15.4" font-family="Times-12" font-size="14.00"> &#160;Module</text>
<polygon fill="#80b1d3" stroke="transparent" points="398,-10 398,-30 418,-30 418,-10 398,-10"/>
<text text-anchor="start" x="421.78" y="-15.4" font-family="Times-12" font-size="14.00"> &#160;Bootstrap</text>
<polygon fill="#fdb462" stroke="transparent" points="495,-10 495,-30 515,-30 515,-10 495,-10"/>
<text text-anchor="start" x="518.67" y="-15.4" font-family="Times-12" font-size="14.00"> &#160;Providers</text>
<polygon fill="#fb8072" stroke="transparent" points="591,-10 591,-30 611,-30 611,-10 591,-10"/>
<text text-anchor="start" x="614.73" y="-15.4" font-family="Times-12" font-size="14.00"> &#160;Exports</text>
<g id="clust1" class="cluster">
<title>cluster_AuthModule</title>
<polygon fill="none" stroke="black" stroke-dasharray="1,5" points="8,-70 8,-195 858,-195 858,-70 8,-70"/>
</g>
<g id="clust6" class="cluster">
<title>cluster_AuthModule_providers</title>
<polygon fill="none" stroke="black" points="16,-78 16,-130 850,-130 850,-78 16,-78"/>
</g>
<!-- AccountService -->
<g id="node1" class="node">
<title>AccountService</title>
<ellipse fill="#fdb462" stroke="black" cx="769" cy="-104" rx="72.91" ry="18"/>
<text text-anchor="middle" x="769" y="-99.8" font-family="Times,serif" font-size="14.00">AccountService</text>
</g>
<!-- AuthModule -->
<g id="node6" class="node">
<title>AuthModule</title>
<polygon fill="#8dd3c7" stroke="black" points="463.55,-187 460.55,-191 439.55,-191 436.55,-187 376.45,-187 376.45,-151 463.55,-151 463.55,-187"/>
<text text-anchor="middle" x="420" y="-164.8" font-family="Times,serif" font-size="14.00">AuthModule</text>
</g>
<!-- AccountService&#45;&gt;AuthModule -->
<g id="edge1" class="edge">
<title>AccountService&#45;&gt;AuthModule</title>
<path fill="none" stroke="black" d="M769,-122.28C769,-143.32 769,-175 769,-175 769,-175 473.85,-175 473.85,-175"/>
<polygon fill="black" stroke="black" points="473.85,-171.5 463.85,-175 473.85,-178.5 473.85,-171.5"/>
</g>
<!-- CoreAuthService -->
<g id="node2" class="node">
<title>CoreAuthService</title>
<ellipse fill="#fdb462" stroke="black" cx="600" cy="-104" rx="78.15" ry="18"/>
<text text-anchor="middle" x="600" y="-99.8" font-family="Times,serif" font-size="14.00">CoreAuthService</text>
</g>
<!-- CoreAuthService&#45;&gt;AuthModule -->
<g id="edge2" class="edge">
<title>CoreAuthService&#45;&gt;AuthModule</title>
<path fill="none" stroke="black" d="M600,-122.02C600,-139.37 600,-163 600,-163 600,-163 473.57,-163 473.57,-163"/>
<polygon fill="black" stroke="black" points="473.57,-159.5 463.57,-163 473.57,-166.5 473.57,-159.5"/>
</g>
<!-- CredentialsService -->
<g id="node3" class="node">
<title>CredentialsService</title>
<ellipse fill="#fdb462" stroke="black" cx="420" cy="-104" rx="83.94" ry="18"/>
<text text-anchor="middle" x="420" y="-99.8" font-family="Times,serif" font-size="14.00">CredentialsService</text>
</g>
<!-- CredentialsService&#45;&gt;AuthModule -->
<g id="edge3" class="edge">
<title>CredentialsService&#45;&gt;AuthModule</title>
<path fill="none" stroke="black" d="M420,-122.11C420,-122.11 420,-140.99 420,-140.99"/>
<polygon fill="black" stroke="black" points="416.5,-140.99 420,-150.99 423.5,-140.99 416.5,-140.99"/>
</g>
<!-- LocalStrategy -->
<g id="node4" class="node">
<title>LocalStrategy</title>
<ellipse fill="#fdb462" stroke="black" cx="253" cy="-104" rx="65.41" ry="18"/>
<text text-anchor="middle" x="253" y="-99.8" font-family="Times,serif" font-size="14.00">LocalStrategy</text>
</g>
<!-- LocalStrategy&#45;&gt;AuthModule -->
<g id="edge4" class="edge">
<title>LocalStrategy&#45;&gt;AuthModule</title>
<path fill="none" stroke="black" d="M253,-122.02C253,-139.37 253,-163 253,-163 253,-163 366.12,-163 366.12,-163"/>
<polygon fill="black" stroke="black" points="366.12,-166.5 376.12,-163 366.12,-159.5 366.12,-166.5"/>
</g>
<!-- SessionsService -->
<g id="node5" class="node">
<title>SessionsService</title>
<ellipse fill="#fdb462" stroke="black" cx="97" cy="-104" rx="73.01" ry="18"/>
<text text-anchor="middle" x="97" y="-99.8" font-family="Times,serif" font-size="14.00">SessionsService</text>
</g>
<!-- SessionsService&#45;&gt;AuthModule -->
<g id="edge5" class="edge">
<title>SessionsService&#45;&gt;AuthModule</title>
<path fill="none" stroke="black" d="M97,-122.28C97,-143.32 97,-175 97,-175 97,-175 366.44,-175 366.44,-175"/>
<polygon fill="black" stroke="black" points="366.44,-178.5 376.44,-175 366.44,-171.5 366.44,-178.5"/>
</g>
</g>
</svg>
