<?xml version="1.0" encoding="UTF-8" standalone="no"?>
<!DOCTYPE svg PUBLIC "-//W3C//DTD SVG 1.1//EN"
 "http://www.w3.org/Graphics/SVG/1.1/DTD/svg11.dtd">
<!-- Generated by graphviz version 2.47.0 (20210316.0004)
 -->
<!-- Title: dependencies Pages: 1 -->
<svg width="1427pt" height="211pt"
 viewBox="0.00 0.00 1427.00 211.00" xmlns="http://www.w3.org/2000/svg" xmlns:xlink="http://www.w3.org/1999/xlink">
<g id="graph0" class="graph" transform="scale(1 1) rotate(0) translate(4 207)">
<title>dependencies</title>
<polygon fill="white" stroke="transparent" points="-4,4 -4,-207 1423,-207 1423,4 -4,4"/>
<text text-anchor="start" x="688.51" y="-42.4" font-family="Times-12" font-weight="bold" font-size="14.00">Legend</text>
<polygon fill="#ffffb3" stroke="transparent" points="475.5,-10 475.5,-30 495.5,-30 495.5,-10 475.5,-10"/>
<text text-anchor="start" x="499.13" y="-15.4" font-family="Times-12" font-size="14.00"> &#160;Declarations</text>
<polygon fill="#8dd3c7" stroke="transparent" points="588.5,-10 588.5,-30 608.5,-30 608.5,-10 588.5,-10"/>
<text text-anchor="start" x="612.23" y="-15.4" font-family="Times-12" font-size="14.00"> &#160;Module</text>
<polygon fill="#80b1d3" stroke="transparent" points="674.5,-10 674.5,-30 694.5,-30 694.5,-10 674.5,-10"/>
<text text-anchor="start" x="698.28" y="-15.4" font-family="Times-12" font-size="14.00"> &#160;Bootstrap</text>
<polygon fill="#fdb462" stroke="transparent" points="771.5,-10 771.5,-30 791.5,-30 791.5,-10 771.5,-10"/>
<text text-anchor="start" x="795.17" y="-15.4" font-family="Times-12" font-size="14.00"> &#160;Providers</text>
<polygon fill="#fb8072" stroke="transparent" points="867.5,-10 867.5,-30 887.5,-30 887.5,-10 867.5,-10"/>
<text text-anchor="start" x="891.23" y="-15.4" font-family="Times-12" font-size="14.00"> &#160;Exports</text>
<g id="clust1" class="cluster">
<title>cluster_ApiModule</title>
<polygon fill="none" stroke="black" stroke-dasharray="1,5" points="8,-70 8,-195 1411,-195 1411,-70 8,-70"/>
</g>
<g id="clust3" class="cluster">
<title>cluster_ApiModule_imports</title>
<polygon fill="none" stroke="black" points="16,-78 16,-130 1403,-130 1403,-78 16,-78"/>
</g>
<!-- AuthModule -->
<g id="node1" class="node">
<title>AuthModule</title>
<polygon fill="#8dd3c7" stroke="black" points="1394.55,-122 1391.55,-126 1370.55,-126 1367.55,-122 1307.45,-122 1307.45,-86 1394.55,-86 1394.55,-122"/>
<text text-anchor="middle" x="1351" y="-99.8" font-family="Times,serif" font-size="14.00">AuthModule</text>
</g>
<!-- ApiModule -->
<g id="node12" class="node">
<title>ApiModule</title>
<polygon fill="#8dd3c7" stroke="black" points="768.05,-187 765.05,-191 744.05,-191 741.05,-187 687.95,-187 687.95,-151 768.05,-151 768.05,-187"/>
<text text-anchor="middle" x="728" y="-164.8" font-family="Times,serif" font-size="14.00">ApiModule</text>
</g>
<!-- AuthModule&#45;&gt;ApiModule -->
<g id="edge1" class="edge">
<title>AuthModule&#45;&gt;ApiModule</title>
<path fill="none" stroke="black" d="M1351,-122.09C1351,-145.13 1351,-182 1351,-182 1351,-182 778.4,-182 778.4,-182"/>
<polygon fill="black" stroke="black" points="778.4,-178.5 768.4,-182 778.4,-185.5 778.4,-178.5"/>
</g>
<!-- BandsModule -->
<g id="node2" class="node">
<title>BandsModule</title>
<polygon fill="#8dd3c7" stroke="black" points="1289.05,-122 1286.05,-126 1265.05,-126 1262.05,-122 1194.95,-122 1194.95,-86 1289.05,-86 1289.05,-122"/>
<text text-anchor="middle" x="1242" y="-99.8" font-family="Times,serif" font-size="14.00">BandsModule</text>
</g>
<!-- BandsModule&#45;&gt;ApiModule -->
<g id="edge2" class="edge">
<title>BandsModule&#45;&gt;ApiModule</title>
<path fill="none" stroke="black" d="M1242,-122.28C1242,-143.32 1242,-175 1242,-175 1242,-175 778.33,-175 778.33,-175"/>
<polygon fill="black" stroke="black" points="778.33,-171.5 768.33,-175 778.33,-178.5 778.33,-171.5"/>
</g>
<!-- ConnectionModule -->
<g id="node3" class="node">
<title>ConnectionModule</title>
<polygon fill="#8dd3c7" stroke="black" points="1177.1,-122 1174.1,-126 1153.1,-126 1150.1,-122 1052.9,-122 1052.9,-86 1177.1,-86 1177.1,-122"/>
<text text-anchor="middle" x="1115" y="-99.8" font-family="Times,serif" font-size="14.00">ConnectionModule</text>
</g>
<!-- ConnectionModule&#45;&gt;ApiModule -->
<g id="edge3" class="edge">
<title>ConnectionModule&#45;&gt;ApiModule</title>
<path fill="none" stroke="black" d="M1115,-122.11C1115,-141.34 1115,-169 1115,-169 1115,-169 778.32,-169 778.32,-169"/>
<polygon fill="black" stroke="black" points="778.32,-165.5 768.32,-169 778.32,-172.5 778.32,-165.5"/>
</g>
<!-- EventsModule -->
<g id="node4" class="node">
<title>EventsModule</title>
<polygon fill="#8dd3c7" stroke="black" points="1034.65,-122 1031.65,-126 1010.65,-126 1007.65,-122 937.35,-122 937.35,-86 1034.65,-86 1034.65,-122"/>
<text text-anchor="middle" x="986" y="-99.8" font-family="Times,serif" font-size="14.00">EventsModule</text>
</g>
<!-- EventsModule&#45;&gt;ApiModule -->
<g id="edge4" class="edge">
<title>EventsModule&#45;&gt;ApiModule</title>
<path fill="none" stroke="black" d="M986,-122.02C986,-139.37 986,-163 986,-163 986,-163 778.31,-163 778.31,-163"/>
<polygon fill="black" stroke="black" points="778.31,-159.5 768.31,-163 778.31,-166.5 778.31,-159.5"/>
</g>
<!-- LocationsModule -->
<g id="node5" class="node">
<title>LocationsModule</title>
<polygon fill="#8dd3c7" stroke="black" points="919.26,-122 916.26,-126 895.26,-126 892.26,-122 804.74,-122 804.74,-86 919.26,-86 919.26,-122"/>
<text text-anchor="middle" x="862" y="-99.8" font-family="Times,serif" font-size="14.00">LocationsModule</text>
</g>
<!-- LocationsModule&#45;&gt;ApiModule -->
<g id="edge5" class="edge">
<title>LocationsModule&#45;&gt;ApiModule</title>
<path fill="none" stroke="black" d="M862,-122.24C862,-137.57 862,-157 862,-157 862,-157 778.2,-157 778.2,-157"/>
<polygon fill="black" stroke="black" points="778.2,-153.5 768.2,-157 778.2,-160.5 778.2,-153.5"/>
</g>
<!-- MusiciansModule -->
<g id="node6" class="node">
<title>MusiciansModule</title>
<polygon fill="#8dd3c7" stroke="black" points="786.59,-122 783.59,-126 762.59,-126 759.59,-122 669.41,-122 669.41,-86 786.59,-86 786.59,-122"/>
<text text-anchor="middle" x="728" y="-99.8" font-family="Times,serif" font-size="14.00">MusiciansModule</text>
</g>
<!-- MusiciansModule&#45;&gt;ApiModule -->
<g id="edge6" class="edge">
<title>MusiciansModule&#45;&gt;ApiModule</title>
<path fill="none" stroke="black" d="M728,-122.11C728,-122.11 728,-140.99 728,-140.99"/>
<polygon fill="black" stroke="black" points="724.5,-140.99 728,-150.99 731.5,-140.99 724.5,-140.99"/>
</g>
<!-- NetworksModule -->
<g id="node7" class="node">
<title>NetworksModule</title>
<polygon fill="#8dd3c7" stroke="black" points="650.97,-122 647.97,-126 626.97,-126 623.97,-122 537.03,-122 537.03,-86 650.97,-86 650.97,-122"/>
<text text-anchor="middle" x="594" y="-99.8" font-family="Times,serif" font-size="14.00">NetworksModule</text>
</g>
<!-- NetworksModule&#45;&gt;ApiModule -->
<g id="edge7" class="edge">
<title>NetworksModule&#45;&gt;ApiModule</title>
<path fill="none" stroke="black" d="M594,-122.24C594,-137.57 594,-157 594,-157 594,-157 677.8,-157 677.8,-157"/>
<polygon fill="black" stroke="black" points="677.8,-160.5 687.8,-157 677.8,-153.5 677.8,-160.5"/>
</g>
<!-- NotificationModule -->
<g id="node8" class="node">
<title>NotificationModule</title>
<polygon fill="#8dd3c7" stroke="black" points="518.7,-122 515.7,-126 494.7,-126 491.7,-122 391.3,-122 391.3,-86 518.7,-86 518.7,-122"/>
<text text-anchor="middle" x="455" y="-99.8" font-family="Times,serif" font-size="14.00">NotificationModule</text>
</g>
<!-- NotificationModule&#45;&gt;ApiModule -->
<g id="edge8" class="edge">
<title>NotificationModule&#45;&gt;ApiModule</title>
<path fill="none" stroke="black" d="M455,-122.02C455,-139.37 455,-163 455,-163 455,-163 677.72,-163 677.72,-163"/>
<polygon fill="black" stroke="black" points="677.72,-166.5 687.72,-163 677.72,-159.5 677.72,-166.5"/>
</g>
<!-- OrganizersModule -->
<g id="node9" class="node">
<title>OrganizersModule</title>
<polygon fill="#8dd3c7" stroke="black" points="373.46,-122 370.46,-126 349.46,-126 346.46,-122 252.54,-122 252.54,-86 373.46,-86 373.46,-122"/>
<text text-anchor="middle" x="313" y="-99.8" font-family="Times,serif" font-size="14.00">OrganizersModule</text>
</g>
<!-- OrganizersModule&#45;&gt;ApiModule -->
<g id="edge9" class="edge">
<title>OrganizersModule&#45;&gt;ApiModule</title>
<path fill="none" stroke="black" d="M313,-122.11C313,-141.34 313,-169 313,-169 313,-169 677.83,-169 677.83,-169"/>
<polygon fill="black" stroke="black" points="677.83,-172.5 687.83,-169 677.83,-165.5 677.83,-172.5"/>
</g>
<!-- UsersModule -->
<g id="node10" class="node">
<title>UsersModule</title>
<polygon fill="#8dd3c7" stroke="black" points="234.92,-122 231.92,-126 210.92,-126 207.92,-122 143.08,-122 143.08,-86 234.92,-86 234.92,-122"/>
<text text-anchor="middle" x="189" y="-99.8" font-family="Times,serif" font-size="14.00">UsersModule</text>
</g>
<!-- UsersModule&#45;&gt;ApiModule -->
<g id="edge10" class="edge">
<title>UsersModule&#45;&gt;ApiModule</title>
<path fill="none" stroke="black" d="M189,-122.28C189,-143.32 189,-175 189,-175 189,-175 677.93,-175 677.93,-175"/>
<polygon fill="black" stroke="black" points="677.93,-178.5 687.93,-175 677.93,-171.5 677.93,-178.5"/>
</g>
<!-- VenuesModule -->
<g id="node11" class="node">
<title>VenuesModule</title>
<polygon fill="#8dd3c7" stroke="black" points="125.53,-122 122.53,-126 101.53,-126 98.53,-122 24.47,-122 24.47,-86 125.53,-86 125.53,-122"/>
<text text-anchor="middle" x="75" y="-99.8" font-family="Times,serif" font-size="14.00">VenuesModule</text>
</g>
<!-- VenuesModule&#45;&gt;ApiModule -->
<g id="edge11" class="edge">
<title>VenuesModule&#45;&gt;ApiModule</title>
<path fill="none" stroke="black" d="M75,-122.09C75,-145.13 75,-182 75,-182 75,-182 677.64,-182 677.64,-182"/>
<polygon fill="black" stroke="black" points="677.64,-185.5 687.64,-182 677.64,-178.5 677.64,-185.5"/>
</g>
</g>
</svg>
