<?xml version="1.0" encoding="UTF-8" standalone="no"?>
<!DOCTYPE svg PUBLIC "-//W3C//DTD SVG 1.1//EN"
 "http://www.w3.org/Graphics/SVG/1.1/DTD/svg11.dtd">
<!-- Generated by graphviz version 2.47.0 (20210316.0004)
 -->
<!-- Title: dependencies Pages: 1 -->
<svg width="4645pt" height="298pt"
 viewBox="0.00 0.00 4645.00 298.00" xmlns="http://www.w3.org/2000/svg" xmlns:xlink="http://www.w3.org/1999/xlink">
<g id="graph0" class="graph" transform="scale(1 1) rotate(0) translate(4 294)">
<title>dependencies</title>
<polygon fill="white" stroke="transparent" points="-4,4 -4,-294 4641,-294 4641,4 -4,4"/>
<text text-anchor="start" x="2297.51" y="-42.4" font-family="Times-12" font-weight="bold" font-size="14.00">Legend</text>
<polygon fill="#ffffb3" stroke="transparent" points="2084.5,-10 2084.5,-30 2104.5,-30 2104.5,-10 2084.5,-10"/>
<text text-anchor="start" x="2108.13" y="-15.4" font-family="Times-12" font-size="14.00"> &#160;Declarations</text>
<polygon fill="#8dd3c7" stroke="transparent" points="2197.5,-10 2197.5,-30 2217.5,-30 2217.5,-10 2197.5,-10"/>
<text text-anchor="start" x="2221.23" y="-15.4" font-family="Times-12" font-size="14.00"> &#160;Module</text>
<polygon fill="#80b1d3" stroke="transparent" points="2283.5,-10 2283.5,-30 2303.5,-30 2303.5,-10 2283.5,-10"/>
<text text-anchor="start" x="2307.28" y="-15.4" font-family="Times-12" font-size="14.00"> &#160;Bootstrap</text>
<polygon fill="#fdb462" stroke="transparent" points="2380.5,-10 2380.5,-30 2400.5,-30 2400.5,-10 2380.5,-10"/>
<text text-anchor="start" x="2404.17" y="-15.4" font-family="Times-12" font-size="14.00"> &#160;Providers</text>
<polygon fill="#fb8072" stroke="transparent" points="2476.5,-10 2476.5,-30 2496.5,-30 2496.5,-10 2476.5,-10"/>
<text text-anchor="start" x="2500.23" y="-15.4" font-family="Times-12" font-size="14.00"> &#160;Exports</text>
<g id="clust1" class="cluster">
<title>cluster_AdminModule</title>
<polygon fill="none" stroke="black" stroke-dasharray="1,5" points="3019,-70 3019,-206 3185,-206 3185,-70 3019,-70"/>
</g>
<g id="clust6" class="cluster">
<title>cluster_AdminModule_providers</title>
<polygon fill="none" stroke="black" points="3027,-78 3027,-130 3177,-130 3177,-78 3027,-78"/>
</g>
<g id="clust7" class="cluster">
<title>cluster_ApiModule</title>
<polygon fill="none" stroke="black" stroke-dasharray="1,5" points="474,-146 474,-274 1877,-274 1877,-146 474,-146"/>
</g>
<g id="clust9" class="cluster">
<title>cluster_ApiModule_imports</title>
<polygon fill="none" stroke="black" points="482,-154 482,-206 1869,-206 1869,-154 482,-154"/>
</g>
<g id="clust13" class="cluster">
<title>cluster_AppModule</title>
<polygon fill="none" stroke="black" stroke-dasharray="1,5" points="1885,-222 1885,-274 1985,-274 1985,-222 1885,-222"/>
</g>
<g id="clust19" class="cluster">
<title>cluster_AuthModule</title>
<polygon fill="none" stroke="black" stroke-dasharray="1,5" points="1910,-70 1910,-138 3011,-138 3011,-70 1910,-70"/>
</g>
<g id="clust22" class="cluster">
<title>cluster_AuthModule_exports</title>
<polygon fill="none" stroke="black" points="1918,-78 1918,-130 2024,-130 2024,-78 1918,-78"/>
</g>
<g id="clust24" class="cluster">
<title>cluster_AuthModule_providers</title>
<polygon fill="none" stroke="black" points="2032,-78 2032,-130 3003,-130 3003,-78 2032,-78"/>
</g>
<g id="clust25" class="cluster">
<title>cluster_BandsModule</title>
<polygon fill="none" stroke="black" stroke-dasharray="1,5" points="1742,-70 1742,-138 1902,-138 1902,-70 1742,-70"/>
</g>
<g id="clust30" class="cluster">
<title>cluster_BandsModule_providers</title>
<polygon fill="none" stroke="black" points="1750,-78 1750,-130 1894,-130 1894,-78 1750,-78"/>
</g>
<g id="clust31" class="cluster">
<title>cluster_ChatModule</title>
<polygon fill="none" stroke="black" stroke-dasharray="1,5" points="3397,-70 3397,-206 3545,-206 3545,-70 3397,-70"/>
</g>
<g id="clust36" class="cluster">
<title>cluster_ChatModule_providers</title>
<polygon fill="none" stroke="black" points="3405,-78 3405,-130 3537,-130 3537,-78 3405,-78"/>
</g>
<g id="clust37" class="cluster">
<title>cluster_ConfigModule</title>
<polygon fill="none" stroke="black" stroke-dasharray="1,5" points="3553,-78 3553,-214 3685,-214 3685,-78 3553,-78"/>
</g>
<g id="clust40" class="cluster">
<title>cluster_ConfigModule_exports</title>
<polygon fill="none" stroke="black" points="3561,-154 3561,-206 3677,-206 3677,-154 3561,-154"/>
</g>
<g id="clust43" class="cluster">
<title>cluster_ConnectionModule</title>
<polygon fill="none" stroke="black" stroke-dasharray="1,5" points="8,-70 8,-138 210,-138 210,-70 8,-70"/>
</g>
<g id="clust48" class="cluster">
<title>cluster_ConnectionModule_providers</title>
<polygon fill="none" stroke="black" points="16,-78 16,-130 202,-130 202,-78 16,-78"/>
</g>
<g id="clust49" class="cluster">
<title>cluster_ContentModule</title>
<polygon fill="none" stroke="black" stroke-dasharray="1,5" points="3693,-70 3693,-206 3867,-206 3867,-70 3693,-70"/>
</g>
<g id="clust54" class="cluster">
<title>cluster_ContentModule_providers</title>
<polygon fill="none" stroke="black" points="3701,-78 3701,-130 3859,-130 3859,-78 3701,-78"/>
</g>
<g id="clust55" class="cluster">
<title>cluster_EventsModule</title>
<polygon fill="none" stroke="black" stroke-dasharray="1,5" points="218,-70 218,-138 382,-138 382,-70 218,-70"/>
</g>
<g id="clust60" class="cluster">
<title>cluster_EventsModule_providers</title>
<polygon fill="none" stroke="black" points="226,-78 226,-130 374,-130 374,-78 226,-78"/>
</g>
<g id="clust61" class="cluster">
<title>cluster_GraphqlModule</title>
<polygon fill="none" stroke="black" stroke-dasharray="1,5" points="3875,-70 3875,-206 4051,-206 4051,-70 3875,-70"/>
</g>
<g id="clust66" class="cluster">
<title>cluster_GraphqlModule_providers</title>
<polygon fill="none" stroke="black" points="3883,-78 3883,-130 4043,-130 4043,-78 3883,-78"/>
</g>
<g id="clust73" class="cluster">
<title>cluster_LocationsModule</title>
<polygon fill="none" stroke="black" stroke-dasharray="1,5" points="390,-70 390,-138 578,-138 578,-70 390,-70"/>
</g>
<g id="clust78" class="cluster">
<title>cluster_LocationsModule_providers</title>
<polygon fill="none" stroke="black" points="398,-78 398,-130 570,-130 570,-78 398,-78"/>
</g>
<g id="clust79" class="cluster">
<title>cluster_MediaModule</title>
<polygon fill="none" stroke="black" stroke-dasharray="1,5" points="4059,-70 4059,-206 4221,-206 4221,-70 4059,-70"/>
</g>
<g id="clust84" class="cluster">
<title>cluster_MediaModule_providers</title>
<polygon fill="none" stroke="black" points="4067,-78 4067,-130 4213,-130 4213,-78 4067,-78"/>
</g>
<g id="clust85" class="cluster">
<title>cluster_MessagingModule</title>
<polygon fill="none" stroke="black" stroke-dasharray="1,5" points="3193,-70 3193,-282 3389,-282 3389,-70 3193,-70"/>
</g>
<g id="clust88" class="cluster">
<title>cluster_MessagingModule_exports</title>
<polygon fill="none" stroke="black" points="3222,-222 3222,-274 3360,-274 3360,-222 3222,-222"/>
</g>
<g id="clust90" class="cluster">
<title>cluster_MessagingModule_providers</title>
<polygon fill="none" stroke="black" points="3201,-78 3201,-130 3381,-130 3381,-78 3201,-78"/>
</g>
<g id="clust91" class="cluster">
<title>cluster_MusiciansModule</title>
<polygon fill="none" stroke="black" stroke-dasharray="1,5" points="586,-70 586,-138 778,-138 778,-70 586,-70"/>
</g>
<g id="clust96" class="cluster">
<title>cluster_MusiciansModule_providers</title>
<polygon fill="none" stroke="black" points="594,-78 594,-130 770,-130 770,-78 594,-78"/>
</g>
<g id="clust97" class="cluster">
<title>cluster_NetworksModule</title>
<polygon fill="none" stroke="black" stroke-dasharray="1,5" points="786,-70 786,-138 974,-138 974,-70 786,-70"/>
</g>
<g id="clust102" class="cluster">
<title>cluster_NetworksModule_providers</title>
<polygon fill="none" stroke="black" points="794,-78 794,-130 966,-130 966,-78 794,-78"/>
</g>
<g id="clust103" class="cluster">
<title>cluster_NotificationModule</title>
<polygon fill="none" stroke="black" stroke-dasharray="1,5" points="982,-70 982,-138 1188,-138 1188,-70 982,-70"/>
</g>
<g id="clust108" class="cluster">
<title>cluster_NotificationModule_providers</title>
<polygon fill="none" stroke="black" points="990,-78 990,-130 1180,-130 1180,-78 990,-78"/>
</g>
<g id="clust109" class="cluster">
<title>cluster_NotificationsModule</title>
<polygon fill="none" stroke="black" stroke-dasharray="1,5" points="4229,-70 4229,-206 4441,-206 4441,-70 4229,-70"/>
</g>
<g id="clust114" class="cluster">
<title>cluster_NotificationsModule_providers</title>
<polygon fill="none" stroke="black" points="4237,-78 4237,-130 4433,-130 4433,-78 4237,-78"/>
</g>
<g id="clust115" class="cluster">
<title>cluster_OrganizersModule</title>
<polygon fill="none" stroke="black" stroke-dasharray="1,5" points="1196,-70 1196,-138 1392,-138 1392,-70 1196,-70"/>
</g>
<g id="clust120" class="cluster">
<title>cluster_OrganizersModule_providers</title>
<polygon fill="none" stroke="black" points="1204,-78 1204,-130 1384,-130 1384,-78 1204,-78"/>
</g>
<g id="clust121" class="cluster">
<title>cluster_PresenceModule</title>
<polygon fill="none" stroke="black" stroke-dasharray="1,5" points="4449,-70 4449,-206 4629,-206 4629,-70 4449,-70"/>
</g>
<g id="clust126" class="cluster">
<title>cluster_PresenceModule_providers</title>
<polygon fill="none" stroke="black" points="4457,-78 4457,-130 4621,-130 4621,-78 4457,-78"/>
</g>
<g id="clust127" class="cluster">
<title>cluster_StrategyModule</title>
<polygon fill="none" stroke="black" stroke-dasharray="1,5" points="2865,-154 2865,-282 2995,-282 2995,-154 2865,-154"/>
</g>
<g id="clust130" class="cluster">
<title>cluster_StrategyModule_exports</title>
<polygon fill="none" stroke="black" points="2873,-222 2873,-274 2987,-274 2987,-222 2873,-222"/>
</g>
<g id="clust133" class="cluster">
<title>cluster_UsersModule</title>
<polygon fill="none" stroke="black" stroke-dasharray="1,5" points="1400,-70 1400,-138 1556,-138 1556,-70 1400,-70"/>
</g>
<g id="clust138" class="cluster">
<title>cluster_UsersModule_providers</title>
<polygon fill="none" stroke="black" points="1408,-78 1408,-130 1548,-130 1548,-78 1408,-78"/>
</g>
<g id="clust139" class="cluster">
<title>cluster_VenuesModule</title>
<polygon fill="none" stroke="black" stroke-dasharray="1,5" points="1564,-70 1564,-138 1734,-138 1734,-70 1564,-70"/>
</g>
<g id="clust144" class="cluster">
<title>cluster_VenuesModule_providers</title>
<polygon fill="none" stroke="black" points="1572,-78 1572,-130 1726,-130 1726,-78 1572,-78"/>
</g>
<g id="clust145" class="cluster">
<title>cluster_WebsocketModule</title>
<polygon fill="none" stroke="black" stroke-dasharray="1,5" points="3033,-222 3033,-274 3171,-274 3171,-222 3033,-222"/>
</g>
<!-- AdminService -->
<g id="node1" class="node">
<title>AdminService</title>
<ellipse fill="#fdb462" stroke="black" cx="3102" cy="-104" rx="66.63" ry="18"/>
<text text-anchor="middle" x="3102" y="-99.8" font-family="Times,serif" font-size="14.00">AdminService</text>
</g>
<!-- AdminModule -->
<g id="node2" class="node">
<title>AdminModule</title>
<polygon fill="#8dd3c7" stroke="black" points="3151.44,-198 3148.44,-202 3127.44,-202 3124.44,-198 3052.56,-198 3052.56,-162 3151.44,-162 3151.44,-198"/>
<text text-anchor="middle" x="3102" y="-175.8" font-family="Times,serif" font-size="14.00">AdminModule</text>
</g>
<!-- AdminService&#45;&gt;AdminModule -->
<g id="edge1" class="edge">
<title>AdminService&#45;&gt;AdminModule</title>
<path fill="none" stroke="black" d="M3102,-122.01C3102,-122.01 3102,-151.85 3102,-151.85"/>
<polygon fill="black" stroke="black" points="3098.5,-151.85 3102,-161.85 3105.5,-151.85 3098.5,-151.85"/>
</g>
<!-- WebsocketModule -->
<g id="node52" class="node">
<title>WebsocketModule</title>
<polygon fill="#8dd3c7" stroke="black" points="3162.74,-266 3159.74,-270 3138.74,-270 3135.74,-266 3041.26,-266 3041.26,-230 3162.74,-230 3162.74,-266"/>
<text text-anchor="middle" x="3102" y="-243.8" font-family="Times,serif" font-size="14.00">WebsocketModule</text>
</g>
<!-- AdminModule&#45;&gt;WebsocketModule -->
<g id="edge49" class="edge">
<title>AdminModule&#45;&gt;WebsocketModule</title>
<path fill="none" stroke="black" d="M3102,-198.22C3102,-198.22 3102,-219.73 3102,-219.73"/>
<polygon fill="black" stroke="black" points="3098.5,-219.73 3102,-229.73 3105.5,-219.73 3098.5,-219.73"/>
</g>
<!-- AuthModule -->
<g id="node3" class="node">
<title>AuthModule</title>
<polygon fill="#8dd3c7" stroke="black" points="1860.55,-198 1857.55,-202 1836.55,-202 1833.55,-198 1773.45,-198 1773.45,-162 1860.55,-162 1860.55,-198"/>
<text text-anchor="middle" x="1817" y="-175.8" font-family="Times,serif" font-size="14.00">AuthModule</text>
</g>
<!-- ApiModule -->
<g id="node14" class="node">
<title>ApiModule</title>
<polygon fill="#8dd3c7" stroke="black" points="1252.05,-266 1249.05,-270 1228.05,-270 1225.05,-266 1171.95,-266 1171.95,-230 1252.05,-230 1252.05,-266"/>
<text text-anchor="middle" x="1212" y="-243.8" font-family="Times,serif" font-size="14.00">ApiModule</text>
</g>
<!-- AuthModule&#45;&gt;ApiModule -->
<g id="edge2" class="edge">
<title>AuthModule&#45;&gt;ApiModule</title>
<path fill="none" stroke="black" d="M1817,-198.15C1817,-221.76 1817,-260 1817,-260 1817,-260 1262.16,-260 1262.16,-260"/>
<polygon fill="black" stroke="black" points="1262.16,-256.5 1252.16,-260 1262.16,-263.5 1262.16,-256.5"/>
</g>
<!-- AuthService  -->
<g id="node21" class="node">
<title>AuthService </title>
<polygon fill="#fb8072" stroke="black" points="2015.98,-122 1926.02,-122 1926.02,-86 2015.98,-86 2015.98,-122"/>
<text text-anchor="middle" x="1971" y="-99.8" font-family="Times,serif" font-size="14.00">AuthService </text>
</g>
<!-- AuthModule&#45;&gt;AuthService  -->
<g id="edge19" class="edge">
<title>AuthModule&#45;&gt;AuthService </title>
<path fill="none" stroke="black" stroke-dasharray="5,2" d="M1860.68,-166C1899.97,-166 1951.55,-166 1951.55,-166 1951.55,-166 1951.55,-132.27 1951.55,-132.27"/>
<polygon fill="black" stroke="black" points="1955.05,-132.27 1951.55,-122.27 1948.05,-132.27 1955.05,-132.27"/>
</g>
<!-- BandsModule -->
<g id="node4" class="node">
<title>BandsModule</title>
<polygon fill="#8dd3c7" stroke="black" points="1755.05,-198 1752.05,-202 1731.05,-202 1728.05,-198 1660.95,-198 1660.95,-162 1755.05,-162 1755.05,-198"/>
<text text-anchor="middle" x="1708" y="-175.8" font-family="Times,serif" font-size="14.00">BandsModule</text>
</g>
<!-- BandsModule&#45;&gt;ApiModule -->
<g id="edge3" class="edge">
<title>BandsModule&#45;&gt;ApiModule</title>
<path fill="none" stroke="black" d="M1708,-198.29C1708,-220.21 1708,-254 1708,-254 1708,-254 1262.17,-254 1262.17,-254"/>
<polygon fill="black" stroke="black" points="1262.17,-250.5 1252.17,-254 1262.17,-257.5 1262.17,-250.5"/>
</g>
<!-- ConnectionModule -->
<g id="node5" class="node">
<title>ConnectionModule</title>
<polygon fill="#8dd3c7" stroke="black" points="614.1,-198 611.1,-202 590.1,-202 587.1,-198 489.9,-198 489.9,-162 614.1,-162 614.1,-198"/>
<text text-anchor="middle" x="552" y="-175.8" font-family="Times,serif" font-size="14.00">ConnectionModule</text>
</g>
<!-- ConnectionModule&#45;&gt;ApiModule -->
<g id="edge4" class="edge">
<title>ConnectionModule&#45;&gt;ApiModule</title>
<path fill="none" stroke="black" d="M572.68,-198.15C572.68,-221.76 572.68,-260 572.68,-260 572.68,-260 1161.52,-260 1161.52,-260"/>
<polygon fill="black" stroke="black" points="1161.52,-263.5 1171.52,-260 1161.52,-256.5 1161.52,-263.5"/>
</g>
<!-- AppModule -->
<g id="node15" class="node">
<title>AppModule</title>
<polygon fill="#8dd3c7" stroke="black" points="1976.66,-266 1973.66,-270 1952.66,-270 1949.66,-266 1893.34,-266 1893.34,-230 1976.66,-230 1976.66,-266"/>
<text text-anchor="middle" x="1935" y="-243.8" font-family="Times,serif" font-size="14.00">AppModule</text>
</g>
<!-- ConnectionModule&#45;&gt;AppModule -->
<g id="edge13" class="edge">
<title>ConnectionModule&#45;&gt;AppModule</title>
<path fill="none" stroke="black" d="M531.32,-198.13C531.32,-208.71 531.32,-220 531.32,-220 531.32,-220 1909.72,-220 1909.72,-220 1909.72,-220 1909.72,-220.98 1909.72,-220.98"/>
<polygon fill="black" stroke="black" points="1906.22,-219.79 1909.72,-229.79 1913.22,-219.79 1906.22,-219.79"/>
</g>
<!-- EventsModule -->
<g id="node6" class="node">
<title>EventsModule</title>
<polygon fill="#8dd3c7" stroke="black" points="729.65,-198 726.65,-202 705.65,-202 702.65,-198 632.35,-198 632.35,-162 729.65,-162 729.65,-198"/>
<text text-anchor="middle" x="681" y="-175.8" font-family="Times,serif" font-size="14.00">EventsModule</text>
</g>
<!-- EventsModule&#45;&gt;ApiModule -->
<g id="edge5" class="edge">
<title>EventsModule&#45;&gt;ApiModule</title>
<path fill="none" stroke="black" d="M697.28,-198.29C697.28,-220.21 697.28,-254 697.28,-254 697.28,-254 1161.61,-254 1161.61,-254"/>
<polygon fill="black" stroke="black" points="1161.61,-257.5 1171.61,-254 1161.61,-250.5 1161.61,-257.5"/>
</g>
<!-- EventsModule&#45;&gt;WebsocketModule -->
<g id="edge50" class="edge">
<title>EventsModule&#45;&gt;WebsocketModule</title>
<path fill="none" stroke="black" d="M664.72,-198.2C664.72,-204.03 664.72,-209 664.72,-209 664.72,-209 3046.95,-209 3046.95,-209 3046.95,-209 3046.95,-219.87 3046.95,-219.87"/>
<polygon fill="black" stroke="black" points="3043.45,-219.87 3046.95,-229.87 3050.45,-219.87 3043.45,-219.87"/>
</g>
<!-- LocationsModule -->
<g id="node7" class="node">
<title>LocationsModule</title>
<polygon fill="#8dd3c7" stroke="black" points="862.26,-198 859.26,-202 838.26,-202 835.26,-198 747.74,-198 747.74,-162 862.26,-162 862.26,-198"/>
<text text-anchor="middle" x="805" y="-175.8" font-family="Times,serif" font-size="14.00">LocationsModule</text>
</g>
<!-- LocationsModule&#45;&gt;ApiModule -->
<g id="edge6" class="edge">
<title>LocationsModule&#45;&gt;ApiModule</title>
<path fill="none" stroke="black" d="M805,-198.22C805,-218.37 805,-248 805,-248 805,-248 1161.86,-248 1161.86,-248"/>
<polygon fill="black" stroke="black" points="1161.86,-251.5 1171.86,-248 1161.86,-244.5 1161.86,-251.5"/>
</g>
<!-- MusiciansModule -->
<g id="node8" class="node">
<title>MusiciansModule</title>
<polygon fill="#8dd3c7" stroke="black" points="997.59,-198 994.59,-202 973.59,-202 970.59,-198 880.41,-198 880.41,-162 997.59,-162 997.59,-198"/>
<text text-anchor="middle" x="939" y="-175.8" font-family="Times,serif" font-size="14.00">MusiciansModule</text>
</g>
<!-- MusiciansModule&#45;&gt;ApiModule -->
<g id="edge7" class="edge">
<title>MusiciansModule&#45;&gt;ApiModule</title>
<path fill="none" stroke="black" d="M939,-198.27C939,-216.56 939,-242 939,-242 939,-242 1161.72,-242 1161.72,-242"/>
<polygon fill="black" stroke="black" points="1161.72,-245.5 1171.72,-242 1161.72,-238.5 1161.72,-245.5"/>
</g>
<!-- NetworksModule -->
<g id="node9" class="node">
<title>NetworksModule</title>
<polygon fill="#8dd3c7" stroke="black" points="1129.97,-198 1126.97,-202 1105.97,-202 1102.97,-198 1016.03,-198 1016.03,-162 1129.97,-162 1129.97,-198"/>
<text text-anchor="middle" x="1073" y="-175.8" font-family="Times,serif" font-size="14.00">NetworksModule</text>
</g>
<!-- NetworksModule&#45;&gt;ApiModule -->
<g id="edge8" class="edge">
<title>NetworksModule&#45;&gt;ApiModule</title>
<path fill="none" stroke="black" d="M1073,-198.03C1073,-214.4 1073,-236 1073,-236 1073,-236 1161.8,-236 1161.8,-236"/>
<polygon fill="black" stroke="black" points="1161.8,-239.5 1171.8,-236 1161.8,-232.5 1161.8,-239.5"/>
</g>
<!-- NotificationModule -->
<g id="node10" class="node">
<title>NotificationModule</title>
<polygon fill="#8dd3c7" stroke="black" points="1275.7,-198 1272.7,-202 1251.7,-202 1248.7,-198 1148.3,-198 1148.3,-162 1275.7,-162 1275.7,-198"/>
<text text-anchor="middle" x="1212" y="-175.8" font-family="Times,serif" font-size="14.00">NotificationModule</text>
</g>
<!-- NotificationModule&#45;&gt;ApiModule -->
<g id="edge9" class="edge">
<title>NotificationModule&#45;&gt;ApiModule</title>
<path fill="none" stroke="black" d="M1212,-198.22C1212,-198.22 1212,-219.73 1212,-219.73"/>
<polygon fill="black" stroke="black" points="1208.5,-219.73 1212,-229.73 1215.5,-219.73 1208.5,-219.73"/>
</g>
<!-- OrganizersModule -->
<g id="node11" class="node">
<title>OrganizersModule</title>
<polygon fill="#8dd3c7" stroke="black" points="1414.46,-198 1411.46,-202 1390.46,-202 1387.46,-198 1293.54,-198 1293.54,-162 1414.46,-162 1414.46,-198"/>
<text text-anchor="middle" x="1354" y="-175.8" font-family="Times,serif" font-size="14.00">OrganizersModule</text>
</g>
<!-- OrganizersModule&#45;&gt;ApiModule -->
<g id="edge10" class="edge">
<title>OrganizersModule&#45;&gt;ApiModule</title>
<path fill="none" stroke="black" d="M1354,-198.03C1354,-214.4 1354,-236 1354,-236 1354,-236 1262.31,-236 1262.31,-236"/>
<polygon fill="black" stroke="black" points="1262.31,-232.5 1252.31,-236 1262.31,-239.5 1262.31,-232.5"/>
</g>
<!-- UsersModule -->
<g id="node12" class="node">
<title>UsersModule</title>
<polygon fill="#8dd3c7" stroke="black" points="1523.92,-198 1520.92,-202 1499.92,-202 1496.92,-198 1432.08,-198 1432.08,-162 1523.92,-162 1523.92,-198"/>
<text text-anchor="middle" x="1478" y="-175.8" font-family="Times,serif" font-size="14.00">UsersModule</text>
</g>
<!-- UsersModule&#45;&gt;ApiModule -->
<g id="edge11" class="edge">
<title>UsersModule&#45;&gt;ApiModule</title>
<path fill="none" stroke="black" d="M1478,-198.27C1478,-216.56 1478,-242 1478,-242 1478,-242 1262.11,-242 1262.11,-242"/>
<polygon fill="black" stroke="black" points="1262.11,-238.5 1252.11,-242 1262.11,-245.5 1262.11,-238.5"/>
</g>
<!-- VenuesModule -->
<g id="node13" class="node">
<title>VenuesModule</title>
<polygon fill="#8dd3c7" stroke="black" points="1642.53,-198 1639.53,-202 1618.53,-202 1615.53,-198 1541.47,-198 1541.47,-162 1642.53,-162 1642.53,-198"/>
<text text-anchor="middle" x="1592" y="-175.8" font-family="Times,serif" font-size="14.00">VenuesModule</text>
</g>
<!-- VenuesModule&#45;&gt;ApiModule -->
<g id="edge12" class="edge">
<title>VenuesModule&#45;&gt;ApiModule</title>
<path fill="none" stroke="black" d="M1592,-198.22C1592,-218.37 1592,-248 1592,-248 1592,-248 1262.31,-248 1262.31,-248"/>
<polygon fill="black" stroke="black" points="1262.31,-244.5 1252.31,-248 1262.31,-251.5 1262.31,-244.5"/>
</g>
<!-- AccountService -->
<g id="node16" class="node">
<title>AccountService</title>
<ellipse fill="#fdb462" stroke="black" cx="2287" cy="-104" rx="72.91" ry="18"/>
<text text-anchor="middle" x="2287" y="-99.8" font-family="Times,serif" font-size="14.00">AccountService</text>
</g>
<!-- AccountService&#45;&gt;AuthModule -->
<g id="edge14" class="edge">
<title>AccountService&#45;&gt;AuthModule</title>
<path fill="none" stroke="black" d="M2287,-122.03C2287,-142.77 2287,-174 2287,-174 2287,-174 1870.79,-174 1870.79,-174"/>
<polygon fill="black" stroke="black" points="1870.79,-170.5 1860.79,-174 1870.79,-177.5 1870.79,-170.5"/>
</g>
<!-- CoreAuthService -->
<g id="node17" class="node">
<title>CoreAuthService</title>
<ellipse fill="#fdb462" stroke="black" cx="2118" cy="-104" rx="78.15" ry="18"/>
<text text-anchor="middle" x="2118" y="-99.8" font-family="Times,serif" font-size="14.00">CoreAuthService</text>
</g>
<!-- CoreAuthService&#45;&gt;AuthModule -->
<g id="edge15" class="edge">
<title>CoreAuthService&#45;&gt;AuthModule</title>
<path fill="none" stroke="black" d="M2118,-122.03C2118,-141.58 2118,-170 2118,-170 2118,-170 1870.77,-170 1870.77,-170"/>
<polygon fill="black" stroke="black" points="1870.77,-166.5 1860.77,-170 1870.77,-173.5 1870.77,-166.5"/>
</g>
<!-- CredentialsService -->
<g id="node18" class="node">
<title>CredentialsService</title>
<ellipse fill="#fdb462" stroke="black" cx="2763" cy="-104" rx="83.94" ry="18"/>
<text text-anchor="middle" x="2763" y="-99.8" font-family="Times,serif" font-size="14.00">CredentialsService</text>
</g>
<!-- CredentialsService&#45;&gt;AuthModule -->
<g id="edge16" class="edge">
<title>CredentialsService&#45;&gt;AuthModule</title>
<path fill="none" stroke="black" d="M2763,-122.24C2763,-147.48 2763,-190 2763,-190 2763,-190 1870.73,-190 1870.73,-190"/>
<polygon fill="black" stroke="black" points="1870.73,-186.5 1860.73,-190 1870.73,-193.5 1870.73,-186.5"/>
</g>
<!-- LocalStrategy -->
<g id="node19" class="node">
<title>LocalStrategy</title>
<ellipse fill="#fdb462" stroke="black" cx="2930" cy="-104" rx="65.41" ry="18"/>
<text text-anchor="middle" x="2930" y="-99.8" font-family="Times,serif" font-size="14.00">LocalStrategy</text>
</g>
<!-- LocalStrategy&#45;&gt;AuthModule -->
<g id="edge17" class="edge">
<title>LocalStrategy&#45;&gt;AuthModule</title>
<path fill="none" stroke="black" d="M2870.85,-111.67C2870.85,-133.44 2870.85,-194 2870.85,-194 2870.85,-194 1870.61,-194 1870.61,-194"/>
<polygon fill="black" stroke="black" points="1870.61,-190.5 1860.61,-194 1870.61,-197.5 1870.61,-190.5"/>
</g>
<!-- StrategyModule -->
<g id="node49" class="node">
<title>StrategyModule</title>
<polygon fill="#8dd3c7" stroke="black" points="2983.2,-198 2980.2,-202 2959.2,-202 2956.2,-198 2876.8,-198 2876.8,-162 2983.2,-162 2983.2,-198"/>
<text text-anchor="middle" x="2930" y="-175.8" font-family="Times,serif" font-size="14.00">StrategyModule</text>
</g>
<!-- LocalStrategy&#45;&gt;StrategyModule -->
<g id="edge45" class="edge">
<title>LocalStrategy&#45;&gt;StrategyModule</title>
<path fill="none" stroke="black" d="M2930,-122.01C2930,-122.01 2930,-151.85 2930,-151.85"/>
<polygon fill="black" stroke="black" points="2926.5,-151.85 2930,-161.85 2933.5,-151.85 2926.5,-151.85"/>
</g>
<!-- SessionsService -->
<g id="node20" class="node">
<title>SessionsService</title>
<ellipse fill="#fdb462" stroke="black" cx="2451" cy="-104" rx="73.01" ry="18"/>
<text text-anchor="middle" x="2451" y="-99.8" font-family="Times,serif" font-size="14.00">SessionsService</text>
</g>
<!-- SessionsService&#45;&gt;AuthModule -->
<g id="edge18" class="edge">
<title>SessionsService&#45;&gt;AuthModule</title>
<path fill="none" stroke="black" d="M2451,-122.29C2451,-144.21 2451,-178 2451,-178 2451,-178 1870.58,-178 1870.58,-178"/>
<polygon fill="black" stroke="black" points="1870.58,-174.5 1860.58,-178 1870.58,-181.5 1870.58,-174.5"/>
</g>
<!-- AuthService -->
<g id="node22" class="node">
<title>AuthService</title>
<ellipse fill="#fdb462" stroke="black" cx="2602" cy="-104" rx="59.11" ry="18"/>
<text text-anchor="middle" x="2602" y="-99.8" font-family="Times,serif" font-size="14.00">AuthService</text>
</g>
<!-- AuthService&#45;&gt;AuthModule -->
<g id="edge20" class="edge">
<title>AuthService&#45;&gt;AuthModule</title>
<path fill="none" stroke="black" d="M2582.23,-121.31C2582.23,-144.29 2582.23,-182 2582.23,-182 2582.23,-182 1870.61,-182 1870.61,-182"/>
<polygon fill="black" stroke="black" points="1870.61,-178.5 1860.61,-182 1870.61,-185.5 1870.61,-178.5"/>
</g>
<!-- AuthService&#45;&gt;AuthModule -->
<g id="edge21" class="edge">
<title>AuthService&#45;&gt;AuthModule</title>
<path fill="none" stroke="black" d="M2621.77,-120.99C2621.77,-145.01 2621.77,-186 2621.77,-186 2621.77,-186 1870.55,-186 1870.55,-186"/>
<polygon fill="black" stroke="black" points="1870.55,-182.5 1860.55,-186 1870.55,-189.5 1870.55,-182.5"/>
</g>
<!-- BandsService -->
<g id="node23" class="node">
<title>BandsService</title>
<ellipse fill="#fdb462" stroke="black" cx="1822" cy="-104" rx="64.26" ry="18"/>
<text text-anchor="middle" x="1822" y="-99.8" font-family="Times,serif" font-size="14.00">BandsService</text>
</g>
<!-- BandsService&#45;&gt;BandsModule -->
<g id="edge22" class="edge">
<title>BandsService&#45;&gt;BandsModule</title>
<path fill="none" stroke="black" d="M1765.55,-112.72C1765.55,-132.68 1765.55,-180 1765.55,-180 1765.55,-180 1764.52,-180 1764.52,-180"/>
<polygon fill="black" stroke="black" points="1765.26,-176.5 1755.26,-180 1765.26,-183.5 1765.26,-176.5"/>
</g>
<!-- ChatService -->
<g id="node24" class="node">
<title>ChatService</title>
<ellipse fill="#fdb462" stroke="black" cx="3471" cy="-104" rx="58.46" ry="18"/>
<text text-anchor="middle" x="3471" y="-99.8" font-family="Times,serif" font-size="14.00">ChatService</text>
</g>
<!-- ChatModule -->
<g id="node25" class="node">
<title>ChatModule</title>
<polygon fill="#8dd3c7" stroke="black" points="3513.99,-198 3510.99,-202 3489.99,-202 3486.99,-198 3428.01,-198 3428.01,-162 3513.99,-162 3513.99,-198"/>
<text text-anchor="middle" x="3471" y="-175.8" font-family="Times,serif" font-size="14.00">ChatModule</text>
</g>
<!-- ChatService&#45;&gt;ChatModule -->
<g id="edge23" class="edge">
<title>ChatService&#45;&gt;ChatModule</title>
<path fill="none" stroke="black" d="M3471,-122.01C3471,-122.01 3471,-151.85 3471,-151.85"/>
<polygon fill="black" stroke="black" points="3467.5,-151.85 3471,-161.85 3474.5,-151.85 3467.5,-151.85"/>
</g>
<!-- ConfigService  -->
<g id="node26" class="node">
<title>ConfigService </title>
<polygon fill="#fb8072" stroke="black" points="3669.37,-198 3568.63,-198 3568.63,-162 3669.37,-162 3669.37,-198"/>
<text text-anchor="middle" x="3619" y="-175.8" font-family="Times,serif" font-size="14.00">ConfigService </text>
</g>
<!-- ConfigModule -->
<g id="node27" class="node">
<title>ConfigModule</title>
<polygon fill="#8dd3c7" stroke="black" points="3668.44,-122 3665.44,-126 3644.44,-126 3641.44,-122 3569.56,-122 3569.56,-86 3668.44,-86 3668.44,-122"/>
<text text-anchor="middle" x="3619" y="-99.8" font-family="Times,serif" font-size="14.00">ConfigModule</text>
</g>
<!-- ConfigModule&#45;&gt;ConfigService  -->
<g id="edge24" class="edge">
<title>ConfigModule&#45;&gt;ConfigService </title>
<path fill="none" stroke="black" stroke-dasharray="5,2" d="M3619,-122.01C3619,-122.01 3619,-151.85 3619,-151.85"/>
<polygon fill="black" stroke="black" points="3615.5,-151.85 3619,-161.85 3622.5,-151.85 3615.5,-151.85"/>
</g>
<!-- ConnectionService -->
<g id="node28" class="node">
<title>ConnectionService</title>
<ellipse fill="#fdb462" stroke="black" cx="109" cy="-104" rx="84.53" ry="18"/>
<text text-anchor="middle" x="109" y="-99.8" font-family="Times,serif" font-size="14.00">ConnectionService</text>
</g>
<!-- ConnectionService&#45;&gt;ConnectionModule -->
<g id="edge25" class="edge">
<title>ConnectionService&#45;&gt;ConnectionModule</title>
<path fill="none" stroke="black" d="M109,-122.01C109,-144.49 109,-180 109,-180 109,-180 479.94,-180 479.94,-180"/>
<polygon fill="black" stroke="black" points="479.94,-183.5 489.94,-180 479.94,-176.5 479.94,-183.5"/>
</g>
<!-- ContentService -->
<g id="node29" class="node">
<title>ContentService</title>
<ellipse fill="#fdb462" stroke="black" cx="3780" cy="-104" rx="70.64" ry="18"/>
<text text-anchor="middle" x="3780" y="-99.8" font-family="Times,serif" font-size="14.00">ContentService</text>
</g>
<!-- ContentModule -->
<g id="node30" class="node">
<title>ContentModule</title>
<polygon fill="#8dd3c7" stroke="black" points="3831.88,-198 3828.88,-202 3807.88,-202 3804.88,-198 3728.12,-198 3728.12,-162 3831.88,-162 3831.88,-198"/>
<text text-anchor="middle" x="3780" y="-175.8" font-family="Times,serif" font-size="14.00">ContentModule</text>
</g>
<!-- ContentService&#45;&gt;ContentModule -->
<g id="edge26" class="edge">
<title>ContentService&#45;&gt;ContentModule</title>
<path fill="none" stroke="black" d="M3780,-122.01C3780,-122.01 3780,-151.85 3780,-151.85"/>
<polygon fill="black" stroke="black" points="3776.5,-151.85 3780,-161.85 3783.5,-151.85 3776.5,-151.85"/>
</g>
<!-- EventsService -->
<g id="node31" class="node">
<title>EventsService</title>
<ellipse fill="#fdb462" stroke="black" cx="300" cy="-104" rx="66.05" ry="18"/>
<text text-anchor="middle" x="300" y="-99.8" font-family="Times,serif" font-size="14.00">EventsService</text>
</g>
<!-- EventsService&#45;&gt;EventsModule -->
<g id="edge27" class="edge">
<title>EventsService&#45;&gt;EventsModule</title>
<path fill="none" stroke="black" d="M333.14,-120.01C333.14,-132.24 333.14,-147 333.14,-147 333.14,-147 705.41,-147 705.41,-147 705.41,-147 705.41,-151.96 705.41,-151.96"/>
<polygon fill="black" stroke="black" points="701.91,-151.96 705.41,-161.96 708.91,-151.96 701.91,-151.96"/>
</g>
<!-- EventsService&#45;&gt;EventsModule -->
<g id="edge28" class="edge">
<title>EventsService&#45;&gt;EventsModule</title>
<path fill="none" stroke="black" d="M266.86,-119.62C266.86,-135.25 266.86,-157 266.86,-157 266.86,-157 656.59,-157 656.59,-157 656.59,-157 656.59,-157.49 656.59,-157.49"/>
<polygon fill="black" stroke="black" points="653.09,-151.88 656.59,-161.88 660.09,-151.88 653.09,-151.88"/>
</g>
<!-- EventsService&#45;&gt;EventsModule -->
<g id="edge29" class="edge">
<title>EventsService&#45;&gt;EventsModule</title>
<path fill="none" stroke="black" d="M300,-122.15C300,-135.74 300,-152 300,-152 300,-152 681,-152 681,-152 681,-152 681,-152.98 681,-152.98"/>
<polygon fill="black" stroke="black" points="677.5,-151.79 681,-161.79 684.5,-151.79 677.5,-151.79"/>
</g>
<!-- GraphqlService -->
<g id="node32" class="node">
<title>GraphqlService</title>
<ellipse fill="#fdb462" stroke="black" cx="3963" cy="-104" rx="71.77" ry="18"/>
<text text-anchor="middle" x="3963" y="-99.8" font-family="Times,serif" font-size="14.00">GraphqlService</text>
</g>
<!-- GraphqlModule -->
<g id="node33" class="node">
<title>GraphqlModule</title>
<polygon fill="#8dd3c7" stroke="black" points="4015.92,-198 4012.92,-202 3991.92,-202 3988.92,-198 3910.08,-198 3910.08,-162 4015.92,-162 4015.92,-198"/>
<text text-anchor="middle" x="3963" y="-175.8" font-family="Times,serif" font-size="14.00">GraphqlModule</text>
</g>
<!-- GraphqlService&#45;&gt;GraphqlModule -->
<g id="edge30" class="edge">
<title>GraphqlService&#45;&gt;GraphqlModule</title>
<path fill="none" stroke="black" d="M3963,-122.01C3963,-122.01 3963,-151.85 3963,-151.85"/>
<polygon fill="black" stroke="black" points="3959.5,-151.85 3963,-161.85 3966.5,-151.85 3959.5,-151.85"/>
</g>
<!-- LocationsService -->
<g id="node34" class="node">
<title>LocationsService</title>
<ellipse fill="#fdb462" stroke="black" cx="484" cy="-104" rx="78.15" ry="18"/>
<text text-anchor="middle" x="484" y="-99.8" font-family="Times,serif" font-size="14.00">LocationsService</text>
</g>
<!-- LocationsService&#45;&gt;LocationsModule -->
<g id="edge31" class="edge">
<title>LocationsService&#45;&gt;LocationsModule</title>
<path fill="none" stroke="black" d="M513.99,-120.78C513.99,-130.96 513.99,-142 513.99,-142 513.99,-142 751.14,-142 751.14,-142 751.14,-142 751.14,-151.89 751.14,-151.89"/>
<polygon fill="black" stroke="black" points="747.64,-151.89 751.14,-161.89 754.64,-151.89 747.64,-151.89"/>
</g>
<!-- LocationsService&#45;&gt;LocationsModule -->
<g id="edge32" class="edge">
<title>LocationsService&#45;&gt;LocationsModule</title>
<path fill="none" stroke="black" d="M538.03,-117.04C538.03,-126.27 538.03,-137 538.03,-137 538.03,-137 754.65,-137 754.65,-137 754.65,-137 754.65,-151.51 754.65,-151.51"/>
<polygon fill="black" stroke="black" points="751.15,-151.51 754.65,-161.51 758.15,-151.51 751.15,-151.51"/>
</g>
<!-- MediaService -->
<g id="node35" class="node">
<title>MediaService</title>
<ellipse fill="#fdb462" stroke="black" cx="4140" cy="-104" rx="64.82" ry="18"/>
<text text-anchor="middle" x="4140" y="-99.8" font-family="Times,serif" font-size="14.00">MediaService</text>
</g>
<!-- MediaModule -->
<g id="node36" class="node">
<title>MediaModule</title>
<polygon fill="#8dd3c7" stroke="black" points="4187.81,-198 4184.81,-202 4163.81,-202 4160.81,-198 4092.19,-198 4092.19,-162 4187.81,-162 4187.81,-198"/>
<text text-anchor="middle" x="4140" y="-175.8" font-family="Times,serif" font-size="14.00">MediaModule</text>
</g>
<!-- MediaService&#45;&gt;MediaModule -->
<g id="edge33" class="edge">
<title>MediaService&#45;&gt;MediaModule</title>
<path fill="none" stroke="black" d="M4124.11,-121.63C4124.11,-121.63 4124.11,-151.94 4124.11,-151.94"/>
<polygon fill="black" stroke="black" points="4120.61,-151.94 4124.11,-161.94 4127.61,-151.94 4120.61,-151.94"/>
</g>
<!-- MediaService&#45;&gt;MediaModule -->
<g id="edge34" class="edge">
<title>MediaService&#45;&gt;MediaModule</title>
<path fill="none" stroke="black" d="M4155.89,-121.63C4155.89,-121.63 4155.89,-151.94 4155.89,-151.94"/>
<polygon fill="black" stroke="black" points="4152.39,-151.94 4155.89,-161.94 4159.39,-151.94 4152.39,-151.94"/>
</g>
<!-- MessagingService  -->
<g id="node37" class="node">
<title>MessagingService </title>
<polygon fill="#fb8072" stroke="black" points="3352.13,-266 3229.87,-266 3229.87,-230 3352.13,-230 3352.13,-266"/>
<text text-anchor="middle" x="3291" y="-243.8" font-family="Times,serif" font-size="14.00">MessagingService </text>
</g>
<!-- MessagingModule -->
<g id="node38" class="node">
<title>MessagingModule</title>
<polygon fill="#8dd3c7" stroke="black" points="3351.2,-198 3348.2,-202 3327.2,-202 3324.2,-198 3230.8,-198 3230.8,-162 3351.2,-162 3351.2,-198"/>
<text text-anchor="middle" x="3291" y="-175.8" font-family="Times,serif" font-size="14.00">MessagingModule</text>
</g>
<!-- MessagingModule&#45;&gt;MessagingService  -->
<g id="edge35" class="edge">
<title>MessagingModule&#45;&gt;MessagingService </title>
<path fill="none" stroke="black" stroke-dasharray="5,2" d="M3291,-198.22C3291,-198.22 3291,-219.73 3291,-219.73"/>
<polygon fill="black" stroke="black" points="3287.5,-219.73 3291,-229.73 3294.5,-219.73 3287.5,-219.73"/>
</g>
<!-- MessagingModule&#45;&gt;WebsocketModule -->
<g id="edge51" class="edge">
<title>MessagingModule&#45;&gt;WebsocketModule</title>
<path fill="none" stroke="black" d="M3230.68,-180C3195.13,-180 3157.05,-180 3157.05,-180 3157.05,-180 3157.05,-219.78 3157.05,-219.78"/>
<polygon fill="black" stroke="black" points="3153.55,-219.78 3157.05,-229.78 3160.55,-219.78 3153.55,-219.78"/>
</g>
<!-- MessagingService -->
<g id="node39" class="node">
<title>MessagingService</title>
<ellipse fill="#fdb462" stroke="black" cx="3291" cy="-104" rx="81.66" ry="18"/>
<text text-anchor="middle" x="3291" y="-99.8" font-family="Times,serif" font-size="14.00">MessagingService</text>
</g>
<!-- MessagingService&#45;&gt;MessagingModule -->
<g id="edge36" class="edge">
<title>MessagingService&#45;&gt;MessagingModule</title>
<path fill="none" stroke="black" d="M3311.03,-121.63C3311.03,-121.63 3311.03,-151.94 3311.03,-151.94"/>
<polygon fill="black" stroke="black" points="3307.53,-151.94 3311.03,-161.94 3314.53,-151.94 3307.53,-151.94"/>
</g>
<!-- MessagingService&#45;&gt;MessagingModule -->
<g id="edge37" class="edge">
<title>MessagingService&#45;&gt;MessagingModule</title>
<path fill="none" stroke="black" d="M3270.97,-121.63C3270.97,-121.63 3270.97,-151.94 3270.97,-151.94"/>
<polygon fill="black" stroke="black" points="3267.47,-151.94 3270.97,-161.94 3274.47,-151.94 3267.47,-151.94"/>
</g>
<!-- MusiciansService -->
<g id="node40" class="node">
<title>MusiciansService</title>
<ellipse fill="#fdb462" stroke="black" cx="682" cy="-104" rx="79.87" ry="18"/>
<text text-anchor="middle" x="682" y="-99.8" font-family="Times,serif" font-size="14.00">MusiciansService</text>
</g>
<!-- MusiciansService&#45;&gt;MusiciansModule -->
<g id="edge38" class="edge">
<title>MusiciansService&#45;&gt;MusiciansModule</title>
<path fill="none" stroke="black" d="M758.17,-109.4C758.17,-117.54 758.17,-132 758.17,-132 758.17,-132 906.15,-132 906.15,-132 906.15,-132 906.15,-151.85 906.15,-151.85"/>
<polygon fill="black" stroke="black" points="902.65,-151.85 906.15,-161.85 909.65,-151.85 902.65,-151.85"/>
</g>
<!-- NetworksService -->
<g id="node41" class="node">
<title>NetworksService</title>
<ellipse fill="#fdb462" stroke="black" cx="880" cy="-104" rx="77.56" ry="18"/>
<text text-anchor="middle" x="880" y="-99.8" font-family="Times,serif" font-size="14.00">NetworksService</text>
</g>
<!-- NetworksService&#45;&gt;NetworksModule -->
<g id="edge39" class="edge">
<title>NetworksService&#45;&gt;NetworksModule</title>
<path fill="none" stroke="black" d="M931.84,-117.65C931.84,-122.6 931.84,-127 931.84,-127 931.84,-127 1073,-127 1073,-127 1073,-127 1073,-151.76 1073,-151.76"/>
<polygon fill="black" stroke="black" points="1069.5,-151.76 1073,-161.76 1076.5,-151.76 1069.5,-151.76"/>
</g>
<!-- NotificationService -->
<g id="node42" class="node">
<title>NotificationService</title>
<ellipse fill="#fdb462" stroke="black" cx="1085" cy="-104" rx="86.81" ry="18"/>
<text text-anchor="middle" x="1085" y="-99.8" font-family="Times,serif" font-size="14.00">NotificationService</text>
</g>
<!-- NotificationService&#45;&gt;NotificationModule -->
<g id="edge40" class="edge">
<title>NotificationService&#45;&gt;NotificationModule</title>
<path fill="none" stroke="black" d="M1160.03,-113.02C1160.03,-113.02 1160.03,-151.74 1160.03,-151.74"/>
<polygon fill="black" stroke="black" points="1156.53,-151.74 1160.03,-161.74 1163.53,-151.74 1156.53,-151.74"/>
</g>
<!-- NotificationsService -->
<g id="node43" class="node">
<title>NotificationsService</title>
<ellipse fill="#fdb462" stroke="black" cx="4335" cy="-104" rx="90.32" ry="18"/>
<text text-anchor="middle" x="4335" y="-99.8" font-family="Times,serif" font-size="14.00">NotificationsService</text>
</g>
<!-- NotificationsModule -->
<g id="node44" class="node">
<title>NotificationsModule</title>
<polygon fill="#8dd3c7" stroke="black" points="4401.14,-198 4398.14,-202 4377.14,-202 4374.14,-198 4268.86,-198 4268.86,-162 4401.14,-162 4401.14,-198"/>
<text text-anchor="middle" x="4335" y="-175.8" font-family="Times,serif" font-size="14.00">NotificationsModule</text>
</g>
<!-- NotificationsService&#45;&gt;NotificationsModule -->
<g id="edge41" class="edge">
<title>NotificationsService&#45;&gt;NotificationsModule</title>
<path fill="none" stroke="black" d="M4335,-122.01C4335,-122.01 4335,-151.85 4335,-151.85"/>
<polygon fill="black" stroke="black" points="4331.5,-151.85 4335,-161.85 4338.5,-151.85 4331.5,-151.85"/>
</g>
<!-- OrganizersService -->
<g id="node45" class="node">
<title>OrganizersService</title>
<ellipse fill="#fdb462" stroke="black" cx="1294" cy="-104" rx="82.2" ry="18"/>
<text text-anchor="middle" x="1294" y="-99.8" font-family="Times,serif" font-size="14.00">OrganizersService</text>
</g>
<!-- OrganizersService&#45;&gt;OrganizersModule -->
<g id="edge42" class="edge">
<title>OrganizersService&#45;&gt;OrganizersModule</title>
<path fill="none" stroke="black" d="M1334.94,-119.75C1334.94,-119.75 1334.94,-151.87 1334.94,-151.87"/>
<polygon fill="black" stroke="black" points="1331.44,-151.87 1334.94,-161.87 1338.44,-151.87 1331.44,-151.87"/>
</g>
<!-- PresenceService -->
<g id="node46" class="node">
<title>PresenceService</title>
<ellipse fill="#fdb462" stroke="black" cx="4539" cy="-104" rx="74.11" ry="18"/>
<text text-anchor="middle" x="4539" y="-99.8" font-family="Times,serif" font-size="14.00">PresenceService</text>
</g>
<!-- PresenceModule -->
<g id="node47" class="node">
<title>PresenceModule</title>
<polygon fill="#8dd3c7" stroke="black" points="4593.8,-198 4590.8,-202 4569.8,-202 4566.8,-198 4484.2,-198 4484.2,-162 4593.8,-162 4593.8,-198"/>
<text text-anchor="middle" x="4539" y="-175.8" font-family="Times,serif" font-size="14.00">PresenceModule</text>
</g>
<!-- PresenceService&#45;&gt;PresenceModule -->
<g id="edge43" class="edge">
<title>PresenceService&#45;&gt;PresenceModule</title>
<path fill="none" stroke="black" d="M4539,-122.01C4539,-122.01 4539,-151.85 4539,-151.85"/>
<polygon fill="black" stroke="black" points="4535.5,-151.85 4539,-161.85 4542.5,-151.85 4535.5,-151.85"/>
</g>
<!-- LocalStrategy  -->
<g id="node48" class="node">
<title>LocalStrategy </title>
<polygon fill="#fb8072" stroke="black" points="2979.03,-266 2880.97,-266 2880.97,-230 2979.03,-230 2979.03,-266"/>
<text text-anchor="middle" x="2930" y="-243.8" font-family="Times,serif" font-size="14.00">LocalStrategy </text>
</g>
<!-- StrategyModule&#45;&gt;LocalStrategy  -->
<g id="edge44" class="edge">
<title>StrategyModule&#45;&gt;LocalStrategy </title>
<path fill="none" stroke="black" stroke-dasharray="5,2" d="M2930,-198.22C2930,-198.22 2930,-219.73 2930,-219.73"/>
<polygon fill="black" stroke="black" points="2926.5,-219.73 2930,-229.73 2933.5,-219.73 2926.5,-219.73"/>
</g>
<!-- UsersService -->
<g id="node50" class="node">
<title>UsersService</title>
<ellipse fill="#fdb462" stroke="black" cx="1478" cy="-104" rx="61.95" ry="18"/>
<text text-anchor="middle" x="1478" y="-99.8" font-family="Times,serif" font-size="14.00">UsersService</text>
</g>
<!-- UsersService&#45;&gt;UsersModule -->
<g id="edge46" class="edge">
<title>UsersService&#45;&gt;UsersModule</title>
<path fill="none" stroke="black" d="M1462.76,-121.63C1462.76,-121.63 1462.76,-151.94 1462.76,-151.94"/>
<polygon fill="black" stroke="black" points="1459.26,-151.94 1462.76,-161.94 1466.26,-151.94 1459.26,-151.94"/>
</g>
<!-- UsersService&#45;&gt;UsersModule -->
<g id="edge47" class="edge">
<title>UsersService&#45;&gt;UsersModule</title>
<path fill="none" stroke="black" d="M1493.24,-121.63C1493.24,-121.63 1493.24,-151.94 1493.24,-151.94"/>
<polygon fill="black" stroke="black" points="1489.74,-151.94 1493.24,-161.94 1496.74,-151.94 1489.74,-151.94"/>
</g>
<!-- VenuesService -->
<g id="node51" class="node">
<title>VenuesService</title>
<ellipse fill="#fdb462" stroke="black" cx="1649" cy="-104" rx="68.9" ry="18"/>
<text text-anchor="middle" x="1649" y="-99.8" font-family="Times,serif" font-size="14.00">VenuesService</text>
</g>
<!-- VenuesService&#45;&gt;VenuesModule -->
<g id="edge48" class="edge">
<title>VenuesService&#45;&gt;VenuesModule</title>
<path fill="none" stroke="black" d="M1611.41,-119.38C1611.41,-119.38 1611.41,-151.97 1611.41,-151.97"/>
<polygon fill="black" stroke="black" points="1607.91,-151.97 1611.41,-161.97 1614.91,-151.97 1607.91,-151.97"/>
</g>
</g>
</svg>
